<?xml version="1.0" encoding="utf-8" standalone="no"?>
<!DOCTYPE svg PUBLIC "-//W3C//DTD SVG 1.1//EN"
  "http://www.w3.org/Graphics/SVG/1.1/DTD/svg11.dtd">
<!-- Created with matplotlib (http://matplotlib.org/) -->
<svg height="576pt" version="1.1" viewBox="0 0 576 576" width="576pt" xmlns="http://www.w3.org/2000/svg" xmlns:xlink="http://www.w3.org/1999/xlink">
 <defs>
  <style type="text/css">
*{stroke-linecap:butt;stroke-linejoin:round;}
  </style>
 </defs>
 <g id="figure_1">
  <g id="patch_1">
   <path d="M 0 576 
L 576 576 
L 576 0 
L 0 0 
z
" style="fill:#ffffff;"/>
  </g>
  <g id="axes_1">
   <g id="patch_2">
    <path d="M 72 512.64 
L 518.4 512.64 
L 518.4 69.12 
L 72 69.12 
z
" style="fill:#ffffff;"/>
   </g>
   <g id="matplotlib.axis_1">
    <g id="xtick_1">
     <g id="line2d_1">
      <path clip-path="url(#p4ccbc9ae68)" d="M 72 512.64 
L 72 69.12 
" style="fill:none;stroke:#b0b0b0;stroke-linecap:square;stroke-width:0.8;"/>
     </g>
     <g id="line2d_2">
      <defs>
       <path d="M 0 0 
L 0 3.5 
" id="m76c4535718" style="stroke:#000000;stroke-width:0.8;"/>
      </defs>
      <g>
       <use style="stroke:#000000;stroke-width:0.8;" x="72" xlink:href="#m76c4535718" y="512.64"/>
      </g>
     </g>
     <g id="text_1">
      <!-- 2009 -->
      <defs>
       <path d="M 19.1875 8.296875 
L 53.609375 8.296875 
L 53.609375 0 
L 7.328125 0 
L 7.328125 8.296875 
Q 12.9375 14.109375 22.625 23.890625 
Q 32.328125 33.6875 34.8125 36.53125 
Q 39.546875 41.84375 41.421875 45.53125 
Q 43.3125 49.21875 43.3125 52.78125 
Q 43.3125 58.59375 39.234375 62.25 
Q 35.15625 65.921875 28.609375 65.921875 
Q 23.96875 65.921875 18.8125 64.3125 
Q 13.671875 62.703125 7.8125 59.421875 
L 7.8125 69.390625 
Q 13.765625 71.78125 18.9375 73 
Q 24.125 74.21875 28.421875 74.21875 
Q 39.75 74.21875 46.484375 68.546875 
Q 53.21875 62.890625 53.21875 53.421875 
Q 53.21875 48.921875 51.53125 44.890625 
Q 49.859375 40.875 45.40625 35.40625 
Q 44.1875 33.984375 37.640625 27.21875 
Q 31.109375 20.453125 19.1875 8.296875 
z
" id="DejaVuSans-32"/>
       <path d="M 31.78125 66.40625 
Q 24.171875 66.40625 20.328125 58.90625 
Q 16.5 51.421875 16.5 36.375 
Q 16.5 21.390625 20.328125 13.890625 
Q 24.171875 6.390625 31.78125 6.390625 
Q 39.453125 6.390625 43.28125 13.890625 
Q 47.125 21.390625 47.125 36.375 
Q 47.125 51.421875 43.28125 58.90625 
Q 39.453125 66.40625 31.78125 66.40625 
z
M 31.78125 74.21875 
Q 44.046875 74.21875 50.515625 64.515625 
Q 56.984375 54.828125 56.984375 36.375 
Q 56.984375 17.96875 50.515625 8.265625 
Q 44.046875 -1.421875 31.78125 -1.421875 
Q 19.53125 -1.421875 13.0625 8.265625 
Q 6.59375 17.96875 6.59375 36.375 
Q 6.59375 54.828125 13.0625 64.515625 
Q 19.53125 74.21875 31.78125 74.21875 
z
" id="DejaVuSans-30"/>
       <path d="M 10.984375 1.515625 
L 10.984375 10.5 
Q 14.703125 8.734375 18.5 7.8125 
Q 22.3125 6.890625 25.984375 6.890625 
Q 35.75 6.890625 40.890625 13.453125 
Q 46.046875 20.015625 46.78125 33.40625 
Q 43.953125 29.203125 39.59375 26.953125 
Q 35.25 24.703125 29.984375 24.703125 
Q 19.046875 24.703125 12.671875 31.3125 
Q 6.296875 37.9375 6.296875 49.421875 
Q 6.296875 60.640625 12.9375 67.421875 
Q 19.578125 74.21875 30.609375 74.21875 
Q 43.265625 74.21875 49.921875 64.515625 
Q 56.59375 54.828125 56.59375 36.375 
Q 56.59375 19.140625 48.40625 8.859375 
Q 40.234375 -1.421875 26.421875 -1.421875 
Q 22.703125 -1.421875 18.890625 -0.6875 
Q 15.09375 0.046875 10.984375 1.515625 
z
M 30.609375 32.421875 
Q 37.25 32.421875 41.125 36.953125 
Q 45.015625 41.5 45.015625 49.421875 
Q 45.015625 57.28125 41.125 61.84375 
Q 37.25 66.40625 30.609375 66.40625 
Q 23.96875 66.40625 20.09375 61.84375 
Q 16.21875 57.28125 16.21875 49.421875 
Q 16.21875 41.5 20.09375 36.953125 
Q 23.96875 32.421875 30.609375 32.421875 
z
" id="DejaVuSans-39"/>
      </defs>
      <g transform="translate(59.275 527.238438)scale(0.1 -0.1)">
       <use xlink:href="#DejaVuSans-32"/>
       <use x="63.623047" xlink:href="#DejaVuSans-30"/>
       <use x="127.246094" xlink:href="#DejaVuSans-30"/>
       <use x="190.869141" xlink:href="#DejaVuSans-39"/>
      </g>
     </g>
    </g>
    <g id="xtick_2">
     <g id="line2d_3">
      <path clip-path="url(#p4ccbc9ae68)" d="M 125.568 512.64 
L 125.568 69.12 
" style="fill:none;stroke:#b0b0b0;stroke-linecap:square;stroke-width:0.8;"/>
     </g>
     <g id="line2d_4">
      <g>
       <use style="stroke:#000000;stroke-width:0.8;" x="125.568" xlink:href="#m76c4535718" y="512.64"/>
      </g>
     </g>
     <g id="text_2">
      <!-- 2010 -->
      <defs>
       <path d="M 12.40625 8.296875 
L 28.515625 8.296875 
L 28.515625 63.921875 
L 10.984375 60.40625 
L 10.984375 69.390625 
L 28.421875 72.90625 
L 38.28125 72.90625 
L 38.28125 8.296875 
L 54.390625 8.296875 
L 54.390625 0 
L 12.40625 0 
z
" id="DejaVuSans-31"/>
      </defs>
      <g transform="translate(112.843 527.238438)scale(0.1 -0.1)">
       <use xlink:href="#DejaVuSans-32"/>
       <use x="63.623047" xlink:href="#DejaVuSans-30"/>
       <use x="127.246094" xlink:href="#DejaVuSans-31"/>
       <use x="190.869141" xlink:href="#DejaVuSans-30"/>
      </g>
     </g>
    </g>
    <g id="xtick_3">
     <g id="line2d_5">
      <path clip-path="url(#p4ccbc9ae68)" d="M 179.136 512.64 
L 179.136 69.12 
" style="fill:none;stroke:#b0b0b0;stroke-linecap:square;stroke-width:0.8;"/>
     </g>
     <g id="line2d_6">
      <g>
       <use style="stroke:#000000;stroke-width:0.8;" x="179.136" xlink:href="#m76c4535718" y="512.64"/>
      </g>
     </g>
     <g id="text_3">
      <!-- 2011 -->
      <g transform="translate(166.411 527.238438)scale(0.1 -0.1)">
       <use xlink:href="#DejaVuSans-32"/>
       <use x="63.623047" xlink:href="#DejaVuSans-30"/>
       <use x="127.246094" xlink:href="#DejaVuSans-31"/>
       <use x="190.869141" xlink:href="#DejaVuSans-31"/>
      </g>
     </g>
    </g>
    <g id="xtick_4">
     <g id="line2d_7">
      <path clip-path="url(#p4ccbc9ae68)" d="M 232.704 512.64 
L 232.704 69.12 
" style="fill:none;stroke:#b0b0b0;stroke-linecap:square;stroke-width:0.8;"/>
     </g>
     <g id="line2d_8">
      <g>
       <use style="stroke:#000000;stroke-width:0.8;" x="232.704" xlink:href="#m76c4535718" y="512.64"/>
      </g>
     </g>
     <g id="text_4">
      <!-- 2012 -->
      <g transform="translate(219.979 527.238438)scale(0.1 -0.1)">
       <use xlink:href="#DejaVuSans-32"/>
       <use x="63.623047" xlink:href="#DejaVuSans-30"/>
       <use x="127.246094" xlink:href="#DejaVuSans-31"/>
       <use x="190.869141" xlink:href="#DejaVuSans-32"/>
      </g>
     </g>
    </g>
    <g id="xtick_5">
     <g id="line2d_9">
      <path clip-path="url(#p4ccbc9ae68)" d="M 286.272 512.64 
L 286.272 69.12 
" style="fill:none;stroke:#b0b0b0;stroke-linecap:square;stroke-width:0.8;"/>
     </g>
     <g id="line2d_10">
      <g>
       <use style="stroke:#000000;stroke-width:0.8;" x="286.272" xlink:href="#m76c4535718" y="512.64"/>
      </g>
     </g>
     <g id="text_5">
      <!-- 2013 -->
      <defs>
       <path d="M 40.578125 39.3125 
Q 47.65625 37.796875 51.625 33 
Q 55.609375 28.21875 55.609375 21.1875 
Q 55.609375 10.40625 48.1875 4.484375 
Q 40.765625 -1.421875 27.09375 -1.421875 
Q 22.515625 -1.421875 17.65625 -0.515625 
Q 12.796875 0.390625 7.625 2.203125 
L 7.625 11.71875 
Q 11.71875 9.328125 16.59375 8.109375 
Q 21.484375 6.890625 26.8125 6.890625 
Q 36.078125 6.890625 40.9375 10.546875 
Q 45.796875 14.203125 45.796875 21.1875 
Q 45.796875 27.640625 41.28125 31.265625 
Q 36.765625 34.90625 28.71875 34.90625 
L 20.21875 34.90625 
L 20.21875 43.015625 
L 29.109375 43.015625 
Q 36.375 43.015625 40.234375 45.921875 
Q 44.09375 48.828125 44.09375 54.296875 
Q 44.09375 59.90625 40.109375 62.90625 
Q 36.140625 65.921875 28.71875 65.921875 
Q 24.65625 65.921875 20.015625 65.03125 
Q 15.375 64.15625 9.8125 62.3125 
L 9.8125 71.09375 
Q 15.4375 72.65625 20.34375 73.4375 
Q 25.25 74.21875 29.59375 74.21875 
Q 40.828125 74.21875 47.359375 69.109375 
Q 53.90625 64.015625 53.90625 55.328125 
Q 53.90625 49.265625 50.4375 45.09375 
Q 46.96875 40.921875 40.578125 39.3125 
z
" id="DejaVuSans-33"/>
      </defs>
      <g transform="translate(273.547 527.238438)scale(0.1 -0.1)">
       <use xlink:href="#DejaVuSans-32"/>
       <use x="63.623047" xlink:href="#DejaVuSans-30"/>
       <use x="127.246094" xlink:href="#DejaVuSans-31"/>
       <use x="190.869141" xlink:href="#DejaVuSans-33"/>
      </g>
     </g>
    </g>
    <g id="xtick_6">
     <g id="line2d_11">
      <path clip-path="url(#p4ccbc9ae68)" d="M 339.84 512.64 
L 339.84 69.12 
" style="fill:none;stroke:#b0b0b0;stroke-linecap:square;stroke-width:0.8;"/>
     </g>
     <g id="line2d_12">
      <g>
       <use style="stroke:#000000;stroke-width:0.8;" x="339.84" xlink:href="#m76c4535718" y="512.64"/>
      </g>
     </g>
     <g id="text_6">
      <!-- 2014 -->
      <defs>
       <path d="M 37.796875 64.3125 
L 12.890625 25.390625 
L 37.796875 25.390625 
z
M 35.203125 72.90625 
L 47.609375 72.90625 
L 47.609375 25.390625 
L 58.015625 25.390625 
L 58.015625 17.1875 
L 47.609375 17.1875 
L 47.609375 0 
L 37.796875 0 
L 37.796875 17.1875 
L 4.890625 17.1875 
L 4.890625 26.703125 
z
" id="DejaVuSans-34"/>
      </defs>
      <g transform="translate(327.115 527.238438)scale(0.1 -0.1)">
       <use xlink:href="#DejaVuSans-32"/>
       <use x="63.623047" xlink:href="#DejaVuSans-30"/>
       <use x="127.246094" xlink:href="#DejaVuSans-31"/>
       <use x="190.869141" xlink:href="#DejaVuSans-34"/>
      </g>
     </g>
    </g>
    <g id="xtick_7">
     <g id="line2d_13">
      <path clip-path="url(#p4ccbc9ae68)" d="M 393.408 512.64 
L 393.408 69.12 
" style="fill:none;stroke:#b0b0b0;stroke-linecap:square;stroke-width:0.8;"/>
     </g>
     <g id="line2d_14">
      <g>
       <use style="stroke:#000000;stroke-width:0.8;" x="393.408" xlink:href="#m76c4535718" y="512.64"/>
      </g>
     </g>
     <g id="text_7">
      <!-- 2015 -->
      <defs>
       <path d="M 10.796875 72.90625 
L 49.515625 72.90625 
L 49.515625 64.59375 
L 19.828125 64.59375 
L 19.828125 46.734375 
Q 21.96875 47.46875 24.109375 47.828125 
Q 26.265625 48.1875 28.421875 48.1875 
Q 40.625 48.1875 47.75 41.5 
Q 54.890625 34.8125 54.890625 23.390625 
Q 54.890625 11.625 47.5625 5.09375 
Q 40.234375 -1.421875 26.90625 -1.421875 
Q 22.3125 -1.421875 17.546875 -0.640625 
Q 12.796875 0.140625 7.71875 1.703125 
L 7.71875 11.625 
Q 12.109375 9.234375 16.796875 8.0625 
Q 21.484375 6.890625 26.703125 6.890625 
Q 35.15625 6.890625 40.078125 11.328125 
Q 45.015625 15.765625 45.015625 23.390625 
Q 45.015625 31 40.078125 35.4375 
Q 35.15625 39.890625 26.703125 39.890625 
Q 22.75 39.890625 18.8125 39.015625 
Q 14.890625 38.140625 10.796875 36.28125 
z
" id="DejaVuSans-35"/>
      </defs>
      <g transform="translate(380.683 527.238438)scale(0.1 -0.1)">
       <use xlink:href="#DejaVuSans-32"/>
       <use x="63.623047" xlink:href="#DejaVuSans-30"/>
       <use x="127.246094" xlink:href="#DejaVuSans-31"/>
       <use x="190.869141" xlink:href="#DejaVuSans-35"/>
      </g>
     </g>
    </g>
    <g id="xtick_8">
     <g id="line2d_15">
      <path clip-path="url(#p4ccbc9ae68)" d="M 446.976 512.64 
L 446.976 69.12 
" style="fill:none;stroke:#b0b0b0;stroke-linecap:square;stroke-width:0.8;"/>
     </g>
     <g id="line2d_16">
      <g>
       <use style="stroke:#000000;stroke-width:0.8;" x="446.976" xlink:href="#m76c4535718" y="512.64"/>
      </g>
     </g>
     <g id="text_8">
      <!-- 2016 -->
      <defs>
       <path d="M 33.015625 40.375 
Q 26.375 40.375 22.484375 35.828125 
Q 18.609375 31.296875 18.609375 23.390625 
Q 18.609375 15.53125 22.484375 10.953125 
Q 26.375 6.390625 33.015625 6.390625 
Q 39.65625 6.390625 43.53125 10.953125 
Q 47.40625 15.53125 47.40625 23.390625 
Q 47.40625 31.296875 43.53125 35.828125 
Q 39.65625 40.375 33.015625 40.375 
z
M 52.59375 71.296875 
L 52.59375 62.3125 
Q 48.875 64.0625 45.09375 64.984375 
Q 41.3125 65.921875 37.59375 65.921875 
Q 27.828125 65.921875 22.671875 59.328125 
Q 17.53125 52.734375 16.796875 39.40625 
Q 19.671875 43.65625 24.015625 45.921875 
Q 28.375 48.1875 33.59375 48.1875 
Q 44.578125 48.1875 50.953125 41.515625 
Q 57.328125 34.859375 57.328125 23.390625 
Q 57.328125 12.15625 50.6875 5.359375 
Q 44.046875 -1.421875 33.015625 -1.421875 
Q 20.359375 -1.421875 13.671875 8.265625 
Q 6.984375 17.96875 6.984375 36.375 
Q 6.984375 53.65625 15.1875 63.9375 
Q 23.390625 74.21875 37.203125 74.21875 
Q 40.921875 74.21875 44.703125 73.484375 
Q 48.484375 72.75 52.59375 71.296875 
z
" id="DejaVuSans-36"/>
      </defs>
      <g transform="translate(434.251 527.238438)scale(0.1 -0.1)">
       <use xlink:href="#DejaVuSans-32"/>
       <use x="63.623047" xlink:href="#DejaVuSans-30"/>
       <use x="127.246094" xlink:href="#DejaVuSans-31"/>
       <use x="190.869141" xlink:href="#DejaVuSans-36"/>
      </g>
     </g>
    </g>
    <g id="xtick_9">
     <g id="line2d_17">
      <path clip-path="url(#p4ccbc9ae68)" d="M 500.544 512.64 
L 500.544 69.12 
" style="fill:none;stroke:#b0b0b0;stroke-linecap:square;stroke-width:0.8;"/>
     </g>
     <g id="line2d_18">
      <g>
       <use style="stroke:#000000;stroke-width:0.8;" x="500.544" xlink:href="#m76c4535718" y="512.64"/>
      </g>
     </g>
     <g id="text_9">
      <!-- 2017 -->
      <defs>
       <path d="M 8.203125 72.90625 
L 55.078125 72.90625 
L 55.078125 68.703125 
L 28.609375 0 
L 18.3125 0 
L 43.21875 64.59375 
L 8.203125 64.59375 
z
" id="DejaVuSans-37"/>
      </defs>
      <g transform="translate(487.819 527.238438)scale(0.1 -0.1)">
       <use xlink:href="#DejaVuSans-32"/>
       <use x="63.623047" xlink:href="#DejaVuSans-30"/>
       <use x="127.246094" xlink:href="#DejaVuSans-31"/>
       <use x="190.869141" xlink:href="#DejaVuSans-37"/>
      </g>
     </g>
    </g>
    <g id="text_10">
     <!-- Year -->
     <defs>
      <path d="M -0.203125 72.90625 
L 10.40625 72.90625 
L 30.609375 42.921875 
L 50.6875 72.90625 
L 61.28125 72.90625 
L 35.5 34.71875 
L 35.5 0 
L 25.59375 0 
L 25.59375 34.71875 
z
" id="DejaVuSans-59"/>
      <path d="M 56.203125 29.59375 
L 56.203125 25.203125 
L 14.890625 25.203125 
Q 15.484375 15.921875 20.484375 11.0625 
Q 25.484375 6.203125 34.421875 6.203125 
Q 39.59375 6.203125 44.453125 7.46875 
Q 49.3125 8.734375 54.109375 11.28125 
L 54.109375 2.78125 
Q 49.265625 0.734375 44.1875 -0.34375 
Q 39.109375 -1.421875 33.890625 -1.421875 
Q 20.796875 -1.421875 13.15625 6.1875 
Q 5.515625 13.8125 5.515625 26.8125 
Q 5.515625 40.234375 12.765625 48.109375 
Q 20.015625 56 32.328125 56 
Q 43.359375 56 49.78125 48.890625 
Q 56.203125 41.796875 56.203125 29.59375 
z
M 47.21875 32.234375 
Q 47.125 39.59375 43.09375 43.984375 
Q 39.0625 48.390625 32.421875 48.390625 
Q 24.90625 48.390625 20.390625 44.140625 
Q 15.875 39.890625 15.1875 32.171875 
z
" id="DejaVuSans-65"/>
      <path d="M 34.28125 27.484375 
Q 23.390625 27.484375 19.1875 25 
Q 14.984375 22.515625 14.984375 16.5 
Q 14.984375 11.71875 18.140625 8.90625 
Q 21.296875 6.109375 26.703125 6.109375 
Q 34.1875 6.109375 38.703125 11.40625 
Q 43.21875 16.703125 43.21875 25.484375 
L 43.21875 27.484375 
z
M 52.203125 31.203125 
L 52.203125 0 
L 43.21875 0 
L 43.21875 8.296875 
Q 40.140625 3.328125 35.546875 0.953125 
Q 30.953125 -1.421875 24.3125 -1.421875 
Q 15.921875 -1.421875 10.953125 3.296875 
Q 6 8.015625 6 15.921875 
Q 6 25.140625 12.171875 29.828125 
Q 18.359375 34.515625 30.609375 34.515625 
L 43.21875 34.515625 
L 43.21875 35.40625 
Q 43.21875 41.609375 39.140625 45 
Q 35.0625 48.390625 27.6875 48.390625 
Q 23 48.390625 18.546875 47.265625 
Q 14.109375 46.140625 10.015625 43.890625 
L 10.015625 52.203125 
Q 14.9375 54.109375 19.578125 55.046875 
Q 24.21875 56 28.609375 56 
Q 40.484375 56 46.34375 49.84375 
Q 52.203125 43.703125 52.203125 31.203125 
z
" id="DejaVuSans-61"/>
      <path d="M 41.109375 46.296875 
Q 39.59375 47.171875 37.8125 47.578125 
Q 36.03125 48 33.890625 48 
Q 26.265625 48 22.1875 43.046875 
Q 18.109375 38.09375 18.109375 28.8125 
L 18.109375 0 
L 9.078125 0 
L 9.078125 54.6875 
L 18.109375 54.6875 
L 18.109375 46.1875 
Q 20.953125 51.171875 25.484375 53.578125 
Q 30.03125 56 36.53125 56 
Q 37.453125 56 38.578125 55.875 
Q 39.703125 55.765625 41.0625 55.515625 
z
" id="DejaVuSans-72"/>
     </defs>
     <g transform="translate(283.960156 540.916563)scale(0.1 -0.1)">
      <use xlink:href="#DejaVuSans-59"/>
      <use x="60.880859" xlink:href="#DejaVuSans-65"/>
      <use x="122.404297" xlink:href="#DejaVuSans-61"/>
      <use x="183.683594" xlink:href="#DejaVuSans-72"/>
     </g>
    </g>
   </g>
   <g id="matplotlib.axis_2">
    <g id="ytick_1">
     <g id="line2d_19">
      <path clip-path="url(#p4ccbc9ae68)" d="M 72 512.64 
L 518.4 512.64 
" style="fill:none;stroke:#b0b0b0;stroke-linecap:square;stroke-width:0.8;"/>
     </g>
     <g id="line2d_20">
      <defs>
       <path d="M 0 0 
L -3.5 0 
" id="mf0e2b5a0b5" style="stroke:#000000;stroke-width:0.8;"/>
      </defs>
      <g>
       <use style="stroke:#000000;stroke-width:0.8;" x="72" xlink:href="#mf0e2b5a0b5" y="512.64"/>
      </g>
     </g>
     <g id="text_11">
      <!-- 0 -->
      <g transform="translate(58.6375 516.439219)scale(0.1 -0.1)">
       <use xlink:href="#DejaVuSans-30"/>
      </g>
     </g>
     <g id="text_12">
      <!-- 0 -->
      <g transform="translate(525.4 516.439219)scale(0.1 -0.1)">
       <use xlink:href="#DejaVuSans-30"/>
      </g>
     </g>
    </g>
    <g id="ytick_2">
     <g id="line2d_21">
      <path clip-path="url(#p4ccbc9ae68)" d="M 72 449.28 
L 518.4 449.28 
" style="fill:none;stroke:#b0b0b0;stroke-linecap:square;stroke-width:0.8;"/>
     </g>
     <g id="line2d_22">
      <g>
       <use style="stroke:#000000;stroke-width:0.8;" x="72" xlink:href="#mf0e2b5a0b5" y="449.28"/>
      </g>
     </g>
     <g id="text_13">
      <!-- 10 -->
      <g transform="translate(52.275 453.079219)scale(0.1 -0.1)">
       <use xlink:href="#DejaVuSans-31"/>
       <use x="63.623047" xlink:href="#DejaVuSans-30"/>
      </g>
     </g>
     <g id="text_14">
      <!-- 10 -->
      <g transform="translate(525.4 453.079219)scale(0.1 -0.1)">
       <use xlink:href="#DejaVuSans-31"/>
       <use x="63.623047" xlink:href="#DejaVuSans-30"/>
      </g>
     </g>
    </g>
    <g id="ytick_3">
     <g id="line2d_23">
      <path clip-path="url(#p4ccbc9ae68)" d="M 72 385.92 
L 518.4 385.92 
" style="fill:none;stroke:#b0b0b0;stroke-linecap:square;stroke-width:0.8;"/>
     </g>
     <g id="line2d_24">
      <g>
       <use style="stroke:#000000;stroke-width:0.8;" x="72" xlink:href="#mf0e2b5a0b5" y="385.92"/>
      </g>
     </g>
     <g id="text_15">
      <!-- 20 -->
      <g transform="translate(52.275 389.719219)scale(0.1 -0.1)">
       <use xlink:href="#DejaVuSans-32"/>
       <use x="63.623047" xlink:href="#DejaVuSans-30"/>
      </g>
     </g>
     <g id="text_16">
      <!-- 20 -->
      <g transform="translate(525.4 389.719219)scale(0.1 -0.1)">
       <use xlink:href="#DejaVuSans-32"/>
       <use x="63.623047" xlink:href="#DejaVuSans-30"/>
      </g>
     </g>
    </g>
    <g id="ytick_4">
     <g id="line2d_25">
      <path clip-path="url(#p4ccbc9ae68)" d="M 72 322.56 
L 518.4 322.56 
" style="fill:none;stroke:#b0b0b0;stroke-linecap:square;stroke-width:0.8;"/>
     </g>
     <g id="line2d_26">
      <g>
       <use style="stroke:#000000;stroke-width:0.8;" x="72" xlink:href="#mf0e2b5a0b5" y="322.56"/>
      </g>
     </g>
     <g id="text_17">
      <!-- 30 -->
      <g transform="translate(52.275 326.359219)scale(0.1 -0.1)">
       <use xlink:href="#DejaVuSans-33"/>
       <use x="63.623047" xlink:href="#DejaVuSans-30"/>
      </g>
     </g>
     <g id="text_18">
      <!-- 30 -->
      <g transform="translate(525.4 326.359219)scale(0.1 -0.1)">
       <use xlink:href="#DejaVuSans-33"/>
       <use x="63.623047" xlink:href="#DejaVuSans-30"/>
      </g>
     </g>
    </g>
    <g id="ytick_5">
     <g id="line2d_27">
      <path clip-path="url(#p4ccbc9ae68)" d="M 72 259.2 
L 518.4 259.2 
" style="fill:none;stroke:#b0b0b0;stroke-linecap:square;stroke-width:0.8;"/>
     </g>
     <g id="line2d_28">
      <g>
       <use style="stroke:#000000;stroke-width:0.8;" x="72" xlink:href="#mf0e2b5a0b5" y="259.2"/>
      </g>
     </g>
     <g id="text_19">
      <!-- 40 -->
      <g transform="translate(52.275 262.999219)scale(0.1 -0.1)">
       <use xlink:href="#DejaVuSans-34"/>
       <use x="63.623047" xlink:href="#DejaVuSans-30"/>
      </g>
     </g>
     <g id="text_20">
      <!-- 40 -->
      <g transform="translate(525.4 262.999219)scale(0.1 -0.1)">
       <use xlink:href="#DejaVuSans-34"/>
       <use x="63.623047" xlink:href="#DejaVuSans-30"/>
      </g>
     </g>
    </g>
    <g id="ytick_6">
     <g id="line2d_29">
      <path clip-path="url(#p4ccbc9ae68)" d="M 72 195.84 
L 518.4 195.84 
" style="fill:none;stroke:#b0b0b0;stroke-linecap:square;stroke-width:0.8;"/>
     </g>
     <g id="line2d_30">
      <g>
       <use style="stroke:#000000;stroke-width:0.8;" x="72" xlink:href="#mf0e2b5a0b5" y="195.84"/>
      </g>
     </g>
     <g id="text_21">
      <!-- 50 -->
      <g transform="translate(52.275 199.639219)scale(0.1 -0.1)">
       <use xlink:href="#DejaVuSans-35"/>
       <use x="63.623047" xlink:href="#DejaVuSans-30"/>
      </g>
     </g>
     <g id="text_22">
      <!-- 50 -->
      <g transform="translate(525.4 199.639219)scale(0.1 -0.1)">
       <use xlink:href="#DejaVuSans-35"/>
       <use x="63.623047" xlink:href="#DejaVuSans-30"/>
      </g>
     </g>
    </g>
    <g id="ytick_7">
     <g id="line2d_31">
      <path clip-path="url(#p4ccbc9ae68)" d="M 72 132.48 
L 518.4 132.48 
" style="fill:none;stroke:#b0b0b0;stroke-linecap:square;stroke-width:0.8;"/>
     </g>
     <g id="line2d_32">
      <g>
       <use style="stroke:#000000;stroke-width:0.8;" x="72" xlink:href="#mf0e2b5a0b5" y="132.48"/>
      </g>
     </g>
     <g id="text_23">
      <!-- 60 -->
      <g transform="translate(52.275 136.279219)scale(0.1 -0.1)">
       <use xlink:href="#DejaVuSans-36"/>
       <use x="63.623047" xlink:href="#DejaVuSans-30"/>
      </g>
     </g>
     <g id="text_24">
      <!-- 60 -->
      <g transform="translate(525.4 136.279219)scale(0.1 -0.1)">
       <use xlink:href="#DejaVuSans-36"/>
       <use x="63.623047" xlink:href="#DejaVuSans-30"/>
      </g>
     </g>
    </g>
    <g id="ytick_8">
     <g id="line2d_33">
      <path clip-path="url(#p4ccbc9ae68)" d="M 72 69.12 
L 518.4 69.12 
" style="fill:none;stroke:#b0b0b0;stroke-linecap:square;stroke-width:0.8;"/>
     </g>
     <g id="line2d_34">
      <g>
       <use style="stroke:#000000;stroke-width:0.8;" x="72" xlink:href="#mf0e2b5a0b5" y="69.12"/>
      </g>
     </g>
     <g id="text_25">
      <!-- 70 -->
      <g transform="translate(52.275 72.919219)scale(0.1 -0.1)">
       <use xlink:href="#DejaVuSans-37"/>
       <use x="63.623047" xlink:href="#DejaVuSans-30"/>
      </g>
     </g>
     <g id="text_26">
      <!-- 70 -->
      <g transform="translate(525.4 72.919219)scale(0.1 -0.1)">
       <use xlink:href="#DejaVuSans-37"/>
       <use x="63.623047" xlink:href="#DejaVuSans-30"/>
      </g>
     </g>
    </g>
    <g id="text_27">
     <!-- % -->
     <defs>
      <path d="M 72.703125 32.078125 
Q 68.453125 32.078125 66.03125 28.46875 
Q 63.625 24.859375 63.625 18.40625 
Q 63.625 12.0625 66.03125 8.421875 
Q 68.453125 4.78125 72.703125 4.78125 
Q 76.859375 4.78125 79.265625 8.421875 
Q 81.6875 12.0625 81.6875 18.40625 
Q 81.6875 24.8125 79.265625 28.4375 
Q 76.859375 32.078125 72.703125 32.078125 
z
M 72.703125 38.28125 
Q 80.421875 38.28125 84.953125 32.90625 
Q 89.5 27.546875 89.5 18.40625 
Q 89.5 9.28125 84.9375 3.921875 
Q 80.375 -1.421875 72.703125 -1.421875 
Q 64.890625 -1.421875 60.34375 3.921875 
Q 55.8125 9.28125 55.8125 18.40625 
Q 55.8125 27.59375 60.375 32.9375 
Q 64.9375 38.28125 72.703125 38.28125 
z
M 22.3125 68.015625 
Q 18.109375 68.015625 15.6875 64.375 
Q 13.28125 60.75 13.28125 54.390625 
Q 13.28125 47.953125 15.671875 44.328125 
Q 18.0625 40.71875 22.3125 40.71875 
Q 26.5625 40.71875 28.96875 44.328125 
Q 31.390625 47.953125 31.390625 54.390625 
Q 31.390625 60.6875 28.953125 64.34375 
Q 26.515625 68.015625 22.3125 68.015625 
z
M 66.40625 74.21875 
L 74.21875 74.21875 
L 28.609375 -1.421875 
L 20.796875 -1.421875 
z
M 22.3125 74.21875 
Q 30.03125 74.21875 34.609375 68.875 
Q 39.203125 63.53125 39.203125 54.390625 
Q 39.203125 45.171875 34.640625 39.84375 
Q 30.078125 34.515625 22.3125 34.515625 
Q 14.546875 34.515625 10.03125 39.859375 
Q 5.515625 45.21875 5.515625 54.390625 
Q 5.515625 63.484375 10.046875 68.84375 
Q 14.59375 74.21875 22.3125 74.21875 
z
" id="DejaVuSans-25"/>
     </defs>
     <g transform="translate(46.195312 295.630781)rotate(-90)scale(0.1 -0.1)">
      <use xlink:href="#DejaVuSans-25"/>
     </g>
    </g>
   </g>
   <g id="line2d_35">
    <path clip-path="url(#p4ccbc9ae68)" d="M 72 503.95968 
L 76.464 503.136 
L 80.928 501.80544 
L 85.392 499.6512 
L 89.856 497.4336 
L 94.32 494.96256 
L 98.784 493.75872 
L 103.248 491.47776 
L 107.712 489.5136 
L 112.176 486.53568 
L 116.64 483.43104 
L 121.104 478.55232 
L 125.568 475.00416 
L 130.032 470.8224 
L 134.496 467.3376 
L 138.96 462.64896 
L 143.424 459.35424 
L 147.888 455.616 
L 152.352 451.8144 
L 156.816 446.68224 
L 161.28 442.05696 
L 165.744 437.11488 
L 170.208 431.47584 
L 174.672 422.41536 
L 179.136 417.53664 
L 183.6 412.46784 
L 188.064 407.7792 
L 192.528 402.83712 
L 196.992 397.008 
L 201.456 390.3552 
L 205.92 382.18176 
L 210.384 376.35264 
L 214.848 373.12128 
L 219.312 364.63104 
L 223.776 361.2096 
L 228.24 353.73312 
L 232.704 347.96736 
L 237.168 339.6672 
L 241.632 334.5984 
L 246.096 333.71136 
L 250.56 327.9456 
L 255.024 326.61504 
L 259.488 321.73632 
L 263.952 323.70048 
L 268.416 320.78592 
L 272.88 318.18816 
L 277.344 314.44992 
L 281.808 313.56288 
L 286.272 311.72544 
L 290.736 308.6208 
L 295.2 302.85504 
L 299.664 295.632 
L 304.128 284.60736 
L 308.592 280.48896 
L 313.056 280.55232 
L 317.52 283.34016 
L 321.984 293.03424 
L 326.448 298.8 
L 330.912 290.30976 
L 335.376 285.68448 
L 339.84 285.4944 
L 344.304 281.75616 
L 348.768 281.56608 
L 353.232 270.22464 
L 357.696 267.56352 
L 362.16 268.51392 
L 366.624 267.12 
L 371.088 262.17792 
L 375.552 263.06496 
L 380.016 249.50592 
L 384.48 245.00736 
L 388.944 253.30752 
L 393.408 244.81728 
L 397.872 239.17824 
L 402.336 236.32704 
L 406.8 231.89184 
L 411.264 234.04608 
L 415.728 234.1728 
L 420.192 226.94976 
L 424.656 225.87264 
L 429.12 222.26112 
L 433.584 216.7488 
L 438.048 209.4624 
L 442.512 213.96096 
L 446.976 209.84256 
L 451.44 209.96928 
L 455.904 213.32736 
L 460.368 212.12352 
L 464.832 213.83424 
L 469.296 197.61408 
L 473.76 199.3248 
L 478.224 196.98048 
L 482.688 196.28352 
L 487.152 192.10176 
L 491.616 186.84288 
L 496.08 189.12384 
L 500.544 184.68864 
L 505.008 180.69696 
L 509.472 178.03584 
L 513.936 172.46016 
L 518.4 169.60896 
" style="fill:none;stroke:#1f77b4;stroke-linecap:square;stroke-width:2;"/>
   </g>
   <g id="line2d_36">
    <path clip-path="url(#p4ccbc9ae68)" d="M 72 494.96256 
L 76.464 494.70912 
L 80.928 493.50528 
L 85.392 493.06176 
L 89.856 493.9488 
L 94.32 492.11136 
L 98.784 491.4144 
L 103.248 489.89376 
L 107.712 489.89376 
L 112.176 488.75328 
L 116.64 487.296 
L 121.104 488.2464 
L 125.568 485.90208 
L 130.032 483.55776 
L 134.496 483.05088 
L 138.96 482.41728 
L 143.424 482.73408 
L 147.888 483.1776 
L 152.352 482.79744 
L 156.816 481.46688 
L 161.28 480.57984 
L 165.744 479.50272 
L 170.208 478.48896 
L 174.672 477.41184 
L 179.136 475.00416 
L 183.6 475.00416 
L 188.064 475.06752 
L 192.528 474.68736 
L 196.992 474.75072 
L 201.456 474.3072 
L 205.92 473.3568 
L 210.384 473.3568 
L 214.848 470.5056 
L 219.312 467.84448 
L 223.776 467.14752 
L 228.24 465.69024 
L 232.704 461.38176 
L 237.168 459.7344 
L 241.632 460.30464 
L 246.096 457.39008 
L 250.56 457.64352 
L 255.024 456.75648 
L 259.488 454.91904 
L 263.952 453.7152 
L 268.416 452.19456 
L 272.88 451.24416 
L 277.344 450.35712 
L 281.808 448.83648 
L 286.272 445.09824 
L 290.736 442.05696 
L 295.2 442.56384 
L 299.664 446.49216 
L 304.128 446.49216 
L 308.592 443.38752 
L 313.056 441.48672 
L 317.52 442.37376 
L 321.984 443.5776 
L 326.448 444.46464 
L 330.912 443.13408 
L 335.376 438.06528 
L 339.84 432.61632 
L 344.304 433.05984 
L 348.768 430.52544 
L 353.232 432.04608 
L 357.696 429.38496 
L 362.16 425.32992 
L 366.624 422.09856 
L 371.088 422.73216 
L 375.552 418.2336 
L 380.016 415.6992 
L 384.48 422.352 
L 388.944 422.6688 
L 393.408 425.26656 
L 397.872 425.2032 
L 402.336 425.2032 
L 406.8 430.84224 
L 411.264 427.29408 
L 415.728 427.80096 
L 420.192 429.0048 
L 424.656 433.24992 
L 429.12 435.9744 
L 433.584 436.86144 
L 438.048 432.86976 
L 442.512 430.20864 
L 446.976 430.9056 
L 451.44 431.09568 
L 455.904 431.98272 
L 460.368 431.66592 
L 464.832 430.14528 
L 469.296 427.04064 
L 473.76 426.09024 
L 478.224 426.40704 
L 482.688 428.11776 
L 487.152 425.8368 
L 491.616 425.32992 
L 496.08 423.80928 
L 500.544 420.51456 
L 505.008 421.4016 
L 509.472 421.14816 
L 513.936 419.88096 
L 518.4 422.28864 
" style="fill:none;stroke:#ff7f0e;stroke-linecap:square;stroke-width:2;"/>
   </g>
   <g id="line2d_37">
    <path clip-path="url(#p4ccbc9ae68)" d="M 72 512.64 
L 76.464 512.64 
L 80.928 512.64 
L 85.392 512.64 
L 89.856 512.64 
L 94.32 512.64 
L 98.784 512.64 
L 103.248 512.64 
L 107.712 512.64 
L 112.176 512.64 
L 116.64 512.64 
L 121.104 512.64 
L 125.568 512.64 
L 130.032 512.64 
L 134.496 512.51328 
L 138.96 512.51328 
L 143.424 512.44992 
L 147.888 512.44992 
L 152.352 512.44992 
L 156.816 512.44992 
L 161.28 512.44992 
L 165.744 512.38656 
L 170.208 512.38656 
L 174.672 512.44992 
L 179.136 512.44992 
L 183.6 512.38656 
L 188.064 512.44992 
L 192.528 512.38656 
L 196.992 512.44992 
L 201.456 512.38656 
L 205.92 512.3232 
L 210.384 512.25984 
L 214.848 512.13312 
L 219.312 510.67584 
L 223.776 510.35904 
L 228.24 510.1056 
L 232.704 509.72544 
L 237.168 509.472 
L 241.632 509.02848 
L 246.096 507.95136 
L 250.56 507.19104 
L 255.024 507.00096 
L 259.488 506.87424 
L 263.952 507.00096 
L 268.416 507.19104 
L 272.88 506.87424 
L 277.344 505.3536 
L 281.808 503.57952 
L 286.272 504.27648 
L 290.736 505.3536 
L 295.2 505.41696 
L 299.664 505.22688 
L 304.128 504.52992 
L 308.592 503.00928 
L 313.056 501.552 
L 317.52 500.47488 
L 321.984 499.90464 
L 326.448 500.09472 
L 330.912 498.57408 
L 335.376 495.97632 
L 339.84 496.10304 
L 344.304 495.8496 
L 348.768 495.59616 
L 353.232 495.97632 
L 357.696 495.78624 
L 362.16 495.91296 
L 366.624 495.78624 
L 371.088 493.75872 
L 375.552 494.13888 
L 380.016 495.46944 
L 384.48 492.55488 
L 388.944 490.02048 
L 393.408 488.62656 
L 397.872 489.64032 
L 402.336 486.9792 
L 406.8 484.95168 
L 411.264 482.10048 
L 415.728 479.94624 
L 420.192 477.09504 
L 424.656 472.78656 
L 429.12 470.88576 
L 433.584 469.11168 
L 438.048 471.83616 
L 442.512 466.704 
L 446.976 466.32384 
L 451.44 462.5856 
L 455.904 461.69856 
L 460.368 460.368 
L 464.832 455.616 
L 469.296 474.43392 
L 473.76 470.69568 
L 478.224 470.37888 
L 482.688 463.2192 
L 487.152 458.84736 
L 491.616 460.62144 
L 496.08 458.08704 
L 500.544 460.24128 
L 505.008 458.4672 
L 509.472 457.2 
L 513.936 459.35424 
L 518.4 459.4176 
" style="fill:none;stroke:#2ca02c;stroke-linecap:square;stroke-width:2;"/>
   </g>
   <g id="line2d_38">
    <path clip-path="url(#p4ccbc9ae68)" d="M 72 342.5184 
L 76.464 337.38624 
L 80.928 327.81888 
L 85.392 326.29824 
L 89.856 332.064 
L 94.32 322.2432 
L 98.784 321.41952 
L 103.248 316.66752 
L 107.712 316.28736 
L 112.176 313.3728 
L 116.64 311.02848 
L 121.104 312.67584 
L 125.568 315.2736 
L 130.032 314.44992 
L 134.496 318.4416 
L 138.96 315.9072 
L 143.424 316.79424 
L 147.888 320.3424 
L 152.352 323.76384 
L 156.816 321.98976 
L 161.28 320.08896 
L 165.744 322.2432 
L 170.208 323.06688 
L 174.672 325.728 
L 179.136 326.61504 
L 183.6 328.76928 
L 188.064 331.62048 
L 192.528 334.40832 
L 196.992 337.70304 
L 201.456 344.79936 
L 205.92 347.96736 
L 210.384 350.88192 
L 214.848 354.36672 
L 219.312 356.39424 
L 223.776 363.80736 
L 228.24 365.328 
L 232.704 368.87616 
L 237.168 368.36928 
L 241.632 368.496 
L 246.096 370.08 
L 250.56 367.03872 
L 255.024 373.12128 
L 259.488 378.76032 
L 263.952 384.0192 
L 268.416 386.8704 
L 272.88 387.63072 
L 277.344 388.39104 
L 281.808 393.01632 
L 286.272 395.1072 
L 290.736 395.7408 
L 295.2 398.33856 
L 299.664 402.20352 
L 304.128 404.6112 
L 308.592 404.928 
L 313.056 405.94176 
L 317.52 411.13728 
L 321.984 415.63584 
L 326.448 418.99392 
L 330.912 419.05728 
L 335.376 418.67712 
L 339.84 419.05728 
L 344.304 418.48704 
L 348.768 421.7184 
L 353.232 421.84512 
L 357.696 423.49248 
L 362.16 428.49792 
L 366.624 431.41248 
L 371.088 432.61632 
L 375.552 433.7568 
L 380.016 436.86144 
L 384.48 439.20576 
L 388.944 441.23328 
L 393.408 437.74848 
L 397.872 439.39584 
L 402.336 438.25536 
L 406.8 439.07904 
L 411.264 442.05696 
L 415.728 444.71808 
L 420.192 449.34336 
L 424.656 451.62432 
L 429.12 450.35712 
L 433.584 452.32128 
L 438.048 454.22208 
L 442.512 456.69312 
L 446.976 455.80608 
L 451.44 455.616 
L 455.904 458.53056 
L 460.368 459.4176 
L 464.832 460.368 
L 469.296 459.98784 
L 473.76 463.40928 
L 478.224 463.34592 
L 482.688 464.67648 
L 487.152 467.40096 
L 491.616 468.16128 
L 496.08 470.06208 
L 500.544 469.872 
L 505.008 469.99872 
L 509.472 470.37888 
L 513.936 472.65984 
L 518.4 473.29344 
" style="fill:none;stroke:#d62728;stroke-linecap:square;stroke-width:2;"/>
   </g>
   <g id="line2d_39">
    <path clip-path="url(#p4ccbc9ae68)" d="M 72 100.99008 
L 76.464 107.26272 
L 80.928 119.68128 
L 85.392 123.98976 
L 89.856 122.6592 
L 94.32 139.25952 
L 98.784 135.77472 
L 103.248 144.89856 
L 107.712 146.92608 
L 112.176 149.5872 
L 116.64 158.52096 
L 121.104 164.09664 
L 125.568 168.02496 
L 130.032 173.28384 
L 134.496 174.48768 
L 138.96 182.5344 
L 143.424 186.08256 
L 147.888 186.336 
L 152.352 188.42688 
L 156.816 197.80416 
L 161.28 207.68832 
L 165.744 212.75712 
L 170.208 219.79008 
L 174.672 227.39328 
L 179.136 233.66592 
L 183.6 237.53088 
L 188.064 240.25536 
L 192.528 245.2608 
L 196.992 250.6464 
L 201.456 254.51136 
L 205.92 262.55808 
L 210.384 266.1696 
L 214.848 266.4864 
L 219.312 274.7232 
L 223.776 273.1392 
L 228.24 287.45856 
L 232.704 295.50528 
L 237.168 305.4528 
L 241.632 311.91552 
L 246.096 317.4912 
L 250.56 329.71968 
L 255.024 329.2128 
L 259.488 332.12736 
L 263.952 328.2624 
L 268.416 329.59296 
L 272.88 333.58464 
L 277.344 339.79392 
L 281.808 344.92608 
L 286.272 344.4192 
L 290.736 349.55136 
L 295.2 352.59264 
L 299.664 349.42464 
L 304.128 361.5264 
L 308.592 376.16256 
L 313.056 382.81536 
L 317.52 378.44352 
L 321.984 362.41344 
L 326.448 363.55392 
L 330.912 372.6144 
L 335.376 398.02176 
L 339.84 400.176 
L 344.304 402.77376 
L 348.768 403.72416 
L 353.232 408.79296 
L 357.696 414.36864 
L 362.16 415.0656 
L 366.624 414.36864 
L 371.088 420.64128 
L 375.552 421.02144 
L 380.016 427.80096 
L 384.48 427.61088 
L 388.944 416.26944 
L 393.408 428.3712 
L 397.872 429.70176 
L 402.336 434.32704 
L 406.8 433.31328 
L 411.264 434.64384 
L 415.728 435.46752 
L 420.192 444.14784 
L 424.656 450.99072 
L 429.12 451.68768 
L 433.584 453.20832 
L 438.048 451.4976 
L 442.512 453.52512 
L 446.976 455.99616 
L 451.44 460.87488 
L 455.904 465.50016 
L 460.368 467.46432 
L 464.832 471.89952 
L 469.296 472.97664 
L 473.76 478.4256 
L 478.224 478.1088 
L 482.688 478.29888 
L 487.152 482.48064 
L 491.616 483.87456 
L 496.08 484.50816 
L 500.544 482.41728 
L 505.008 484.95168 
L 509.472 486.15552 
L 513.936 487.86624 
L 518.4 487.10592 
" style="fill:none;stroke:#9467bd;stroke-linecap:square;stroke-width:2;"/>
   </g>
   <g id="line2d_40">
    <path clip-path="url(#p4ccbc9ae68)" d="M 72 493.18848 
L 76.464 493.06176 
L 80.928 493.06176 
L 85.392 492.87168 
L 89.856 491.03424 
L 94.32 490.02048 
L 98.784 494.39232 
L 103.248 494.13888 
L 107.712 494.32896 
L 112.176 498.89088 
L 116.64 497.94048 
L 121.104 497.62368 
L 125.568 497.62368 
L 130.032 497.62368 
L 134.496 497.18016 
L 138.96 497.81376 
L 143.424 496.60992 
L 147.888 496.60992 
L 152.352 496.60992 
L 156.816 496.35648 
L 161.28 494.70912 
L 165.744 494.51904 
L 170.208 494.83584 
L 174.672 494.83584 
L 179.136 494.83584 
L 183.6 494.51904 
L 188.064 494.45568 
L 192.528 493.9488 
L 196.992 493.69536 
L 201.456 492.93504 
L 205.92 493.06176 
L 210.384 493.06176 
L 214.848 492.87168 
L 219.312 492.9984 
L 223.776 491.98464 
L 228.24 488.75328 
L 232.704 488.75328 
L 237.168 489.1968 
L 241.632 489.32352 
L 246.096 489.70368 
L 250.56 488.49984 
L 255.024 488.49984 
L 259.488 489.32352 
L 263.952 489.5136 
L 268.416 489.38688 
L 272.88 489.26016 
L 277.344 490.52736 
L 281.808 490.71744 
L 286.272 492.93504 
L 290.736 492.61824 
L 295.2 492.6816 
L 299.664 494.13888 
L 304.128 493.50528 
L 308.592 491.47776 
L 313.056 490.40064 
L 317.52 489.07008 
L 321.984 488.62656 
L 326.448 478.1088 
L 330.912 486.59904 
L 335.376 483.24096 
L 339.84 485.64864 
L 344.304 485.96544 
L 348.768 486.21888 
L 353.232 487.6128 
L 357.696 487.6128 
L 362.16 486.85248 
L 366.624 486.91584 
L 371.088 485.83872 
L 375.552 487.54944 
L 380.016 489.8304 
L 384.48 488.49984 
L 388.944 488.05632 
L 393.408 486.91584 
L 397.872 488.5632 
L 402.336 488.62656 
L 406.8 487.23264 
L 411.264 484.88832 
L 415.728 479.88288 
L 420.192 477.91872 
L 424.656 472.91328 
L 429.12 472.84992 
L 433.584 474.49728 
L 438.048 478.29888 
L 442.512 476.96832 
L 446.976 478.1088 
L 451.44 478.29888 
L 455.904 477.66528 
L 460.368 477.03168 
L 464.832 475.76448 
L 469.296 477.85536 
L 473.76 474.56064 
L 478.224 476.39808 
L 482.688 478.7424 
L 487.152 480.45312 
L 491.616 480.89664 
L 496.08 479.88288 
L 500.544 487.67616 
L 505.008 488.5632 
L 509.472 489.1968 
L 513.936 490.02048 
L 518.4 490.08384 
" style="fill:none;stroke:#8c564b;stroke-linecap:square;stroke-width:2;"/>
   </g>
   <g id="line2d_41">
    <path clip-path="url(#p4ccbc9ae68)" d="M 72 512.64 
L 76.464 512.64 
L 80.928 512.64 
L 85.392 512.64 
L 89.856 512.64 
L 94.32 512.64 
L 98.784 512.64 
L 103.248 512.64 
L 107.712 512.64 
L 112.176 512.64 
L 116.64 512.64 
L 121.104 512.64 
L 125.568 512.64 
L 130.032 512.64 
L 134.496 512.64 
L 138.96 512.64 
L 143.424 512.64 
L 147.888 512.64 
L 152.352 512.64 
L 156.816 512.64 
L 161.28 512.64 
L 165.744 512.64 
L 170.208 512.64 
L 174.672 512.64 
L 179.136 512.64 
L 183.6 512.64 
L 188.064 512.64 
L 192.528 512.64 
L 196.992 512.64 
L 201.456 512.64 
L 205.92 512.64 
L 210.384 512.64 
L 214.848 512.64 
L 219.312 512.64 
L 223.776 512.64 
L 228.24 512.64 
L 232.704 512.64 
L 237.168 512.64 
L 241.632 512.64 
L 246.096 512.64 
L 250.56 512.64 
L 255.024 512.64 
L 259.488 512.64 
L 263.952 512.64 
L 268.416 512.64 
L 272.88 512.64 
L 277.344 512.64 
L 281.808 512.64 
L 286.272 512.64 
L 290.736 512.64 
L 295.2 512.64 
L 299.664 512.64 
L 304.128 512.64 
L 308.592 512.64 
L 313.056 512.64 
L 317.52 512.64 
L 321.984 512.64 
L 326.448 512.64 
L 330.912 512.64 
L 335.376 512.64 
L 339.84 512.64 
L 344.304 512.64 
L 348.768 512.64 
L 353.232 512.64 
L 357.696 512.64 
L 362.16 512.64 
L 366.624 512.64 
L 371.088 512.64 
L 375.552 512.64 
L 380.016 512.64 
L 384.48 512.64 
L 388.944 512.64 
L 393.408 512.64 
L 397.872 512.64 
L 402.336 512.64 
L 406.8 512.64 
L 411.264 512.64 
L 415.728 512.64 
L 420.192 512.64 
L 424.656 512.64 
L 429.12 512.64 
L 433.584 512.64 
L 438.048 512.64 
L 442.512 512.64 
L 446.976 512.64 
L 451.44 509.1552 
L 455.904 498.44736 
L 460.368 497.68704 
L 464.832 497.62368 
L 469.296 496.03968 
L 473.76 494.07552 
L 478.224 493.06176 
L 482.688 493.12512 
L 487.152 493.44192 
L 491.616 493.12512 
L 496.08 492.61824 
L 500.544 491.79456 
L 505.008 492.11136 
L 509.472 492.42816 
L 513.936 491.28768 
L 518.4 491.0976 
" style="fill:none;stroke:#e377c2;stroke-linecap:square;stroke-width:2;"/>
   </g>
   <g id="line2d_42">
    <path clip-path="url(#p4ccbc9ae68)" d="M 72 512.57664 
L 76.464 512.57664 
L 80.928 512.51328 
L 85.392 512.51328 
L 89.856 512.51328 
L 94.32 512.64 
L 98.784 512.51328 
L 103.248 512.44992 
L 107.712 512.44992 
L 112.176 512.44992 
L 116.64 512.38656 
L 121.104 512.3232 
L 125.568 512.19648 
L 130.032 512.06976 
L 134.496 511.94304 
L 138.96 511.81632 
L 143.424 511.6896 
L 147.888 511.49952 
L 152.352 511.11936 
L 156.816 510.80256 
L 161.28 510.54912 
L 165.744 510.16896 
L 170.208 509.7888 
L 174.672 509.21856 
L 179.136 508.71168 
L 183.6 508.39488 
L 188.064 508.01472 
L 192.528 507.38112 
L 196.992 506.24064 
L 201.456 505.22688 
L 205.92 504.21312 
L 210.384 503.32608 
L 214.848 503.7696 
L 219.312 503.19936 
L 223.776 502.8192 
L 228.24 501.2352 
L 232.704 499.77792 
L 237.168 498.89088 
L 241.632 499.0176 
L 246.096 498.00384 
L 250.56 497.37024 
L 255.024 496.22976 
L 259.488 494.39232 
L 263.952 492.80832 
L 268.416 491.79456 
L 272.88 490.71744 
L 277.344 488.18304 
L 281.808 484.31808 
L 286.272 482.35392 
L 290.736 481.21344 
L 295.2 481.5936 
L 299.664 482.48064 
L 304.128 481.46688 
L 308.592 479.81952 
L 313.056 477.85536 
L 317.52 476.65152 
L 321.984 477.53856 
L 326.448 477.4752 
L 330.912 475.5744 
L 335.376 469.68192 
L 339.84 468.35136 
L 344.304 467.84448 
L 348.768 467.9712 
L 353.232 468.9216 
L 357.696 466.19712 
L 362.16 465.12 
L 366.624 466.51392 
L 371.088 466.00704 
L 375.552 466.704 
L 380.016 466.00704 
L 384.48 464.92992 
L 388.944 467.84448 
L 393.408 468.288 
L 397.872 468.35136 
L 402.336 469.30176 
L 406.8 471.20256 
L 411.264 471.01248 
L 415.728 472.7232 
L 420.192 470.94912 
L 424.656 471.51936 
L 429.12 474.43392 
L 433.584 475.19424 
L 438.048 479.62944 
L 442.512 481.08672 
L 446.976 482.03712 
L 451.44 483.87456 
L 455.904 484.19136 
L 460.368 485.83872 
L 464.832 486.6624 
L 469.296 486.9792 
L 473.76 486.85248 
L 478.224 488.68992 
L 482.688 490.08384 
L 487.152 491.0976 
L 491.616 492.30144 
L 496.08 492.93504 
L 500.544 493.632 
L 505.008 494.77248 
L 509.472 495.34272 
L 513.936 495.8496 
L 518.4 496.54656 
" style="fill:none;stroke:#7f7f7f;stroke-linecap:square;stroke-width:2;"/>
   </g>
   <g id="patch_3">
    <path d="M 72 512.64 
L 72 69.12 
" style="fill:none;stroke:#000000;stroke-linecap:square;stroke-linejoin:miter;stroke-width:0.8;"/>
   </g>
   <g id="patch_4">
    <path d="M 518.4 512.64 
L 518.4 69.12 
" style="fill:none;stroke:#000000;stroke-linecap:square;stroke-linejoin:miter;stroke-width:0.8;"/>
   </g>
   <g id="patch_5">
    <path d="M 72 512.64 
L 518.4 512.64 
" style="fill:none;stroke:#000000;stroke-linecap:square;stroke-linejoin:miter;stroke-width:0.8;"/>
   </g>
   <g id="patch_6">
    <path d="M 72 69.12 
L 518.4 69.12 
" style="fill:none;stroke:#000000;stroke-linecap:square;stroke-linejoin:miter;stroke-width:0.8;"/>
   </g>
   <g id="text_28">
    <!-- Source: StatCounter -->
    <defs>
     <path d="M 53.515625 70.515625 
L 53.515625 60.890625 
Q 47.90625 63.578125 42.921875 64.890625 
Q 37.9375 66.21875 33.296875 66.21875 
Q 25.25 66.21875 20.875 63.09375 
Q 16.5 59.96875 16.5 54.203125 
Q 16.5 49.359375 19.40625 46.890625 
Q 22.3125 44.4375 30.421875 42.921875 
L 36.375 41.703125 
Q 47.40625 39.59375 52.65625 34.296875 
Q 57.90625 29 57.90625 20.125 
Q 57.90625 9.515625 50.796875 4.046875 
Q 43.703125 -1.421875 29.984375 -1.421875 
Q 24.8125 -1.421875 18.96875 -0.25 
Q 13.140625 0.921875 6.890625 3.21875 
L 6.890625 13.375 
Q 12.890625 10.015625 18.65625 8.296875 
Q 24.421875 6.59375 29.984375 6.59375 
Q 38.421875 6.59375 43.015625 9.90625 
Q 47.609375 13.234375 47.609375 19.390625 
Q 47.609375 24.75 44.3125 27.78125 
Q 41.015625 30.8125 33.5 32.328125 
L 27.484375 33.5 
Q 16.453125 35.6875 11.515625 40.375 
Q 6.59375 45.0625 6.59375 53.421875 
Q 6.59375 63.09375 13.40625 68.65625 
Q 20.21875 74.21875 32.171875 74.21875 
Q 37.3125 74.21875 42.625 73.28125 
Q 47.953125 72.359375 53.515625 70.515625 
z
" id="DejaVuSans-53"/>
     <path d="M 30.609375 48.390625 
Q 23.390625 48.390625 19.1875 42.75 
Q 14.984375 37.109375 14.984375 27.296875 
Q 14.984375 17.484375 19.15625 11.84375 
Q 23.34375 6.203125 30.609375 6.203125 
Q 37.796875 6.203125 41.984375 11.859375 
Q 46.1875 17.53125 46.1875 27.296875 
Q 46.1875 37.015625 41.984375 42.703125 
Q 37.796875 48.390625 30.609375 48.390625 
z
M 30.609375 56 
Q 42.328125 56 49.015625 48.375 
Q 55.71875 40.765625 55.71875 27.296875 
Q 55.71875 13.875 49.015625 6.21875 
Q 42.328125 -1.421875 30.609375 -1.421875 
Q 18.84375 -1.421875 12.171875 6.21875 
Q 5.515625 13.875 5.515625 27.296875 
Q 5.515625 40.765625 12.171875 48.375 
Q 18.84375 56 30.609375 56 
z
" id="DejaVuSans-6f"/>
     <path d="M 8.5 21.578125 
L 8.5 54.6875 
L 17.484375 54.6875 
L 17.484375 21.921875 
Q 17.484375 14.15625 20.5 10.265625 
Q 23.53125 6.390625 29.59375 6.390625 
Q 36.859375 6.390625 41.078125 11.03125 
Q 45.3125 15.671875 45.3125 23.6875 
L 45.3125 54.6875 
L 54.296875 54.6875 
L 54.296875 0 
L 45.3125 0 
L 45.3125 8.40625 
Q 42.046875 3.421875 37.71875 1 
Q 33.40625 -1.421875 27.6875 -1.421875 
Q 18.265625 -1.421875 13.375 4.4375 
Q 8.5 10.296875 8.5 21.578125 
z
M 31.109375 56 
z
" id="DejaVuSans-75"/>
     <path d="M 48.78125 52.59375 
L 48.78125 44.1875 
Q 44.96875 46.296875 41.140625 47.34375 
Q 37.3125 48.390625 33.40625 48.390625 
Q 24.65625 48.390625 19.8125 42.84375 
Q 14.984375 37.3125 14.984375 27.296875 
Q 14.984375 17.28125 19.8125 11.734375 
Q 24.65625 6.203125 33.40625 6.203125 
Q 37.3125 6.203125 41.140625 7.25 
Q 44.96875 8.296875 48.78125 10.40625 
L 48.78125 2.09375 
Q 45.015625 0.34375 40.984375 -0.53125 
Q 36.96875 -1.421875 32.421875 -1.421875 
Q 20.0625 -1.421875 12.78125 6.34375 
Q 5.515625 14.109375 5.515625 27.296875 
Q 5.515625 40.671875 12.859375 48.328125 
Q 20.21875 56 33.015625 56 
Q 37.15625 56 41.109375 55.140625 
Q 45.0625 54.296875 48.78125 52.59375 
z
" id="DejaVuSans-63"/>
     <path d="M 11.71875 12.40625 
L 22.015625 12.40625 
L 22.015625 0 
L 11.71875 0 
z
M 11.71875 51.703125 
L 22.015625 51.703125 
L 22.015625 39.3125 
L 11.71875 39.3125 
z
" id="DejaVuSans-3a"/>
     <path id="DejaVuSans-20"/>
     <path d="M 18.3125 70.21875 
L 18.3125 54.6875 
L 36.8125 54.6875 
L 36.8125 47.703125 
L 18.3125 47.703125 
L 18.3125 18.015625 
Q 18.3125 11.328125 20.140625 9.421875 
Q 21.96875 7.515625 27.59375 7.515625 
L 36.8125 7.515625 
L 36.8125 0 
L 27.59375 0 
Q 17.1875 0 13.234375 3.875 
Q 9.28125 7.765625 9.28125 18.015625 
L 9.28125 47.703125 
L 2.6875 47.703125 
L 2.6875 54.6875 
L 9.28125 54.6875 
L 9.28125 70.21875 
z
" id="DejaVuSans-74"/>
     <path d="M 64.40625 67.28125 
L 64.40625 56.890625 
Q 59.421875 61.53125 53.78125 63.8125 
Q 48.140625 66.109375 41.796875 66.109375 
Q 29.296875 66.109375 22.65625 58.46875 
Q 16.015625 50.828125 16.015625 36.375 
Q 16.015625 21.96875 22.65625 14.328125 
Q 29.296875 6.6875 41.796875 6.6875 
Q 48.140625 6.6875 53.78125 8.984375 
Q 59.421875 11.28125 64.40625 15.921875 
L 64.40625 5.609375 
Q 59.234375 2.09375 53.4375 0.328125 
Q 47.65625 -1.421875 41.21875 -1.421875 
Q 24.65625 -1.421875 15.125 8.703125 
Q 5.609375 18.84375 5.609375 36.375 
Q 5.609375 53.953125 15.125 64.078125 
Q 24.65625 74.21875 41.21875 74.21875 
Q 47.75 74.21875 53.53125 72.484375 
Q 59.328125 70.75 64.40625 67.28125 
z
" id="DejaVuSans-43"/>
     <path d="M 54.890625 33.015625 
L 54.890625 0 
L 45.90625 0 
L 45.90625 32.71875 
Q 45.90625 40.484375 42.875 44.328125 
Q 39.84375 48.1875 33.796875 48.1875 
Q 26.515625 48.1875 22.3125 43.546875 
Q 18.109375 38.921875 18.109375 30.90625 
L 18.109375 0 
L 9.078125 0 
L 9.078125 54.6875 
L 18.109375 54.6875 
L 18.109375 46.1875 
Q 21.34375 51.125 25.703125 53.5625 
Q 30.078125 56 35.796875 56 
Q 45.21875 56 50.046875 50.171875 
Q 54.890625 44.34375 54.890625 33.015625 
z
" id="DejaVuSans-6e"/>
    </defs>
    <g transform="translate(409.4784 544.32)scale(0.1 -0.1)">
     <use xlink:href="#DejaVuSans-53"/>
     <use x="63.476562" xlink:href="#DejaVuSans-6f"/>
     <use x="124.658203" xlink:href="#DejaVuSans-75"/>
     <use x="188.037109" xlink:href="#DejaVuSans-72"/>
     <use x="229.119141" xlink:href="#DejaVuSans-63"/>
     <use x="284.099609" xlink:href="#DejaVuSans-65"/>
     <use x="345.623047" xlink:href="#DejaVuSans-3a"/>
     <use x="379.314453" xlink:href="#DejaVuSans-20"/>
     <use x="411.101562" xlink:href="#DejaVuSans-53"/>
     <use x="474.578125" xlink:href="#DejaVuSans-74"/>
     <use x="513.787109" xlink:href="#DejaVuSans-61"/>
     <use x="575.066406" xlink:href="#DejaVuSans-74"/>
     <use x="614.275391" xlink:href="#DejaVuSans-43"/>
     <use x="684.099609" xlink:href="#DejaVuSans-6f"/>
     <use x="745.28125" xlink:href="#DejaVuSans-75"/>
     <use x="808.660156" xlink:href="#DejaVuSans-6e"/>
     <use x="872.039062" xlink:href="#DejaVuSans-74"/>
     <use x="911.248047" xlink:href="#DejaVuSans-65"/>
     <use x="972.771484" xlink:href="#DejaVuSans-72"/>
    </g>
   </g>
   <g id="text_29">
    <!-- Usage share of major (&gt;2% in May 2017) web browsers -->
    <defs>
     <path d="M 8.6875 72.90625 
L 18.609375 72.90625 
L 18.609375 28.609375 
Q 18.609375 16.890625 22.84375 11.734375 
Q 27.09375 6.59375 36.625 6.59375 
Q 46.09375 6.59375 50.34375 11.734375 
Q 54.59375 16.890625 54.59375 28.609375 
L 54.59375 72.90625 
L 64.5 72.90625 
L 64.5 27.390625 
Q 64.5 13.140625 57.4375 5.859375 
Q 50.390625 -1.421875 36.625 -1.421875 
Q 22.796875 -1.421875 15.734375 5.859375 
Q 8.6875 13.140625 8.6875 27.390625 
z
" id="DejaVuSans-55"/>
     <path d="M 44.28125 53.078125 
L 44.28125 44.578125 
Q 40.484375 46.53125 36.375 47.5 
Q 32.28125 48.484375 27.875 48.484375 
Q 21.1875 48.484375 17.84375 46.4375 
Q 14.5 44.390625 14.5 40.28125 
Q 14.5 37.15625 16.890625 35.375 
Q 19.28125 33.59375 26.515625 31.984375 
L 29.59375 31.296875 
Q 39.15625 29.25 43.1875 25.515625 
Q 47.21875 21.78125 47.21875 15.09375 
Q 47.21875 7.46875 41.1875 3.015625 
Q 35.15625 -1.421875 24.609375 -1.421875 
Q 20.21875 -1.421875 15.453125 -0.5625 
Q 10.6875 0.296875 5.421875 2 
L 5.421875 11.28125 
Q 10.40625 8.6875 15.234375 7.390625 
Q 20.0625 6.109375 24.8125 6.109375 
Q 31.15625 6.109375 34.5625 8.28125 
Q 37.984375 10.453125 37.984375 14.40625 
Q 37.984375 18.0625 35.515625 20.015625 
Q 33.0625 21.96875 24.703125 23.78125 
L 21.578125 24.515625 
Q 13.234375 26.265625 9.515625 29.90625 
Q 5.8125 33.546875 5.8125 39.890625 
Q 5.8125 47.609375 11.28125 51.796875 
Q 16.75 56 26.8125 56 
Q 31.78125 56 36.171875 55.265625 
Q 40.578125 54.546875 44.28125 53.078125 
z
" id="DejaVuSans-73"/>
     <path d="M 45.40625 27.984375 
Q 45.40625 37.75 41.375 43.109375 
Q 37.359375 48.484375 30.078125 48.484375 
Q 22.859375 48.484375 18.828125 43.109375 
Q 14.796875 37.75 14.796875 27.984375 
Q 14.796875 18.265625 18.828125 12.890625 
Q 22.859375 7.515625 30.078125 7.515625 
Q 37.359375 7.515625 41.375 12.890625 
Q 45.40625 18.265625 45.40625 27.984375 
z
M 54.390625 6.78125 
Q 54.390625 -7.171875 48.1875 -13.984375 
Q 42 -20.796875 29.203125 -20.796875 
Q 24.46875 -20.796875 20.265625 -20.09375 
Q 16.0625 -19.390625 12.109375 -17.921875 
L 12.109375 -9.1875 
Q 16.0625 -11.328125 19.921875 -12.34375 
Q 23.78125 -13.375 27.78125 -13.375 
Q 36.625 -13.375 41.015625 -8.765625 
Q 45.40625 -4.15625 45.40625 5.171875 
L 45.40625 9.625 
Q 42.625 4.78125 38.28125 2.390625 
Q 33.9375 0 27.875 0 
Q 17.828125 0 11.671875 7.65625 
Q 5.515625 15.328125 5.515625 27.984375 
Q 5.515625 40.671875 11.671875 48.328125 
Q 17.828125 56 27.875 56 
Q 33.9375 56 38.28125 53.609375 
Q 42.625 51.21875 45.40625 46.390625 
L 45.40625 54.6875 
L 54.390625 54.6875 
z
" id="DejaVuSans-67"/>
     <path d="M 54.890625 33.015625 
L 54.890625 0 
L 45.90625 0 
L 45.90625 32.71875 
Q 45.90625 40.484375 42.875 44.328125 
Q 39.84375 48.1875 33.796875 48.1875 
Q 26.515625 48.1875 22.3125 43.546875 
Q 18.109375 38.921875 18.109375 30.90625 
L 18.109375 0 
L 9.078125 0 
L 9.078125 75.984375 
L 18.109375 75.984375 
L 18.109375 46.1875 
Q 21.34375 51.125 25.703125 53.5625 
Q 30.078125 56 35.796875 56 
Q 45.21875 56 50.046875 50.171875 
Q 54.890625 44.34375 54.890625 33.015625 
z
" id="DejaVuSans-68"/>
     <path d="M 37.109375 75.984375 
L 37.109375 68.5 
L 28.515625 68.5 
Q 23.6875 68.5 21.796875 66.546875 
Q 19.921875 64.59375 19.921875 59.515625 
L 19.921875 54.6875 
L 34.71875 54.6875 
L 34.71875 47.703125 
L 19.921875 47.703125 
L 19.921875 0 
L 10.890625 0 
L 10.890625 47.703125 
L 2.296875 47.703125 
L 2.296875 54.6875 
L 10.890625 54.6875 
L 10.890625 58.5 
Q 10.890625 67.625 15.140625 71.796875 
Q 19.390625 75.984375 28.609375 75.984375 
z
" id="DejaVuSans-66"/>
     <path d="M 52 44.1875 
Q 55.375 50.25 60.0625 53.125 
Q 64.75 56 71.09375 56 
Q 79.640625 56 84.28125 50.015625 
Q 88.921875 44.046875 88.921875 33.015625 
L 88.921875 0 
L 79.890625 0 
L 79.890625 32.71875 
Q 79.890625 40.578125 77.09375 44.375 
Q 74.3125 48.1875 68.609375 48.1875 
Q 61.625 48.1875 57.5625 43.546875 
Q 53.515625 38.921875 53.515625 30.90625 
L 53.515625 0 
L 44.484375 0 
L 44.484375 32.71875 
Q 44.484375 40.625 41.703125 44.40625 
Q 38.921875 48.1875 33.109375 48.1875 
Q 26.21875 48.1875 22.15625 43.53125 
Q 18.109375 38.875 18.109375 30.90625 
L 18.109375 0 
L 9.078125 0 
L 9.078125 54.6875 
L 18.109375 54.6875 
L 18.109375 46.1875 
Q 21.1875 51.21875 25.484375 53.609375 
Q 29.78125 56 35.6875 56 
Q 41.65625 56 45.828125 52.96875 
Q 50 49.953125 52 44.1875 
z
" id="DejaVuSans-6d"/>
     <path d="M 9.421875 54.6875 
L 18.40625 54.6875 
L 18.40625 -0.984375 
Q 18.40625 -11.421875 14.421875 -16.109375 
Q 10.453125 -20.796875 1.609375 -20.796875 
L -1.8125 -20.796875 
L -1.8125 -13.1875 
L 0.59375 -13.1875 
Q 5.71875 -13.1875 7.5625 -10.8125 
Q 9.421875 -8.453125 9.421875 -0.984375 
z
M 9.421875 75.984375 
L 18.40625 75.984375 
L 18.40625 64.59375 
L 9.421875 64.59375 
z
" id="DejaVuSans-6a"/>
     <path d="M 31 75.875 
Q 24.46875 64.65625 21.28125 53.65625 
Q 18.109375 42.671875 18.109375 31.390625 
Q 18.109375 20.125 21.3125 9.0625 
Q 24.515625 -2 31 -13.1875 
L 23.1875 -13.1875 
Q 15.875 -1.703125 12.234375 9.375 
Q 8.59375 20.453125 8.59375 31.390625 
Q 8.59375 42.28125 12.203125 53.3125 
Q 15.828125 64.359375 23.1875 75.875 
z
" id="DejaVuSans-28"/>
     <path d="M 10.59375 49.21875 
L 10.59375 58.109375 
L 73.1875 35.40625 
L 73.1875 27.296875 
L 10.59375 4.59375 
L 10.59375 13.484375 
L 60.890625 31.296875 
z
" id="DejaVuSans-3e"/>
     <path d="M 9.421875 54.6875 
L 18.40625 54.6875 
L 18.40625 0 
L 9.421875 0 
z
M 9.421875 75.984375 
L 18.40625 75.984375 
L 18.40625 64.59375 
L 9.421875 64.59375 
z
" id="DejaVuSans-69"/>
     <path d="M 9.8125 72.90625 
L 24.515625 72.90625 
L 43.109375 23.296875 
L 61.8125 72.90625 
L 76.515625 72.90625 
L 76.515625 0 
L 66.890625 0 
L 66.890625 64.015625 
L 48.09375 14.015625 
L 38.1875 14.015625 
L 19.390625 64.015625 
L 19.390625 0 
L 9.8125 0 
z
" id="DejaVuSans-4d"/>
     <path d="M 32.171875 -5.078125 
Q 28.375 -14.84375 24.75 -17.8125 
Q 21.140625 -20.796875 15.09375 -20.796875 
L 7.90625 -20.796875 
L 7.90625 -13.28125 
L 13.1875 -13.28125 
Q 16.890625 -13.28125 18.9375 -11.515625 
Q 21 -9.765625 23.484375 -3.21875 
L 25.09375 0.875 
L 2.984375 54.6875 
L 12.5 54.6875 
L 29.59375 11.921875 
L 46.6875 54.6875 
L 56.203125 54.6875 
z
" id="DejaVuSans-79"/>
     <path d="M 8.015625 75.875 
L 15.828125 75.875 
Q 23.140625 64.359375 26.78125 53.3125 
Q 30.421875 42.28125 30.421875 31.390625 
Q 30.421875 20.453125 26.78125 9.375 
Q 23.140625 -1.703125 15.828125 -13.1875 
L 8.015625 -13.1875 
Q 14.5 -2 17.703125 9.0625 
Q 20.90625 20.125 20.90625 31.390625 
Q 20.90625 42.671875 17.703125 53.65625 
Q 14.5 64.65625 8.015625 75.875 
z
" id="DejaVuSans-29"/>
     <path d="M 4.203125 54.6875 
L 13.1875 54.6875 
L 24.421875 12.015625 
L 35.59375 54.6875 
L 46.1875 54.6875 
L 57.421875 12.015625 
L 68.609375 54.6875 
L 77.59375 54.6875 
L 63.28125 0 
L 52.6875 0 
L 40.921875 44.828125 
L 29.109375 0 
L 18.5 0 
z
" id="DejaVuSans-77"/>
     <path d="M 48.6875 27.296875 
Q 48.6875 37.203125 44.609375 42.84375 
Q 40.53125 48.484375 33.40625 48.484375 
Q 26.265625 48.484375 22.1875 42.84375 
Q 18.109375 37.203125 18.109375 27.296875 
Q 18.109375 17.390625 22.1875 11.75 
Q 26.265625 6.109375 33.40625 6.109375 
Q 40.53125 6.109375 44.609375 11.75 
Q 48.6875 17.390625 48.6875 27.296875 
z
M 18.109375 46.390625 
Q 20.953125 51.265625 25.265625 53.625 
Q 29.59375 56 35.59375 56 
Q 45.5625 56 51.78125 48.09375 
Q 58.015625 40.1875 58.015625 27.296875 
Q 58.015625 14.40625 51.78125 6.484375 
Q 45.5625 -1.421875 35.59375 -1.421875 
Q 29.59375 -1.421875 25.265625 0.953125 
Q 20.953125 3.328125 18.109375 8.203125 
L 18.109375 0 
L 9.078125 0 
L 9.078125 75.984375 
L 18.109375 75.984375 
z
" id="DejaVuSans-62"/>
    </defs>
    <g transform="translate(127.430625 63.12)scale(0.12 -0.12)">
     <use xlink:href="#DejaVuSans-55"/>
     <use x="73.193359" xlink:href="#DejaVuSans-73"/>
     <use x="125.292969" xlink:href="#DejaVuSans-61"/>
     <use x="186.572266" xlink:href="#DejaVuSans-67"/>
     <use x="250.048828" xlink:href="#DejaVuSans-65"/>
     <use x="311.572266" xlink:href="#DejaVuSans-20"/>
     <use x="343.359375" xlink:href="#DejaVuSans-73"/>
     <use x="395.458984" xlink:href="#DejaVuSans-68"/>
     <use x="458.837891" xlink:href="#DejaVuSans-61"/>
     <use x="520.117188" xlink:href="#DejaVuSans-72"/>
     <use x="561.199219" xlink:href="#DejaVuSans-65"/>
     <use x="622.722656" xlink:href="#DejaVuSans-20"/>
     <use x="654.509766" xlink:href="#DejaVuSans-6f"/>
     <use x="715.691406" xlink:href="#DejaVuSans-66"/>
     <use x="750.896484" xlink:href="#DejaVuSans-20"/>
     <use x="782.683594" xlink:href="#DejaVuSans-6d"/>
     <use x="880.095703" xlink:href="#DejaVuSans-61"/>
     <use x="941.375" xlink:href="#DejaVuSans-6a"/>
     <use x="969.158203" xlink:href="#DejaVuSans-6f"/>
     <use x="1030.339844" xlink:href="#DejaVuSans-72"/>
     <use x="1071.453125" xlink:href="#DejaVuSans-20"/>
     <use x="1103.240234" xlink:href="#DejaVuSans-28"/>
     <use x="1142.253906" xlink:href="#DejaVuSans-3e"/>
     <use x="1226.042969" xlink:href="#DejaVuSans-32"/>
     <use x="1289.666016" xlink:href="#DejaVuSans-25"/>
     <use x="1384.685547" xlink:href="#DejaVuSans-20"/>
     <use x="1416.472656" xlink:href="#DejaVuSans-69"/>
     <use x="1444.255859" xlink:href="#DejaVuSans-6e"/>
     <use x="1507.634766" xlink:href="#DejaVuSans-20"/>
     <use x="1539.421875" xlink:href="#DejaVuSans-4d"/>
     <use x="1625.701172" xlink:href="#DejaVuSans-61"/>
     <use x="1686.980469" xlink:href="#DejaVuSans-79"/>
     <use x="1746.160156" xlink:href="#DejaVuSans-20"/>
     <use x="1777.947266" xlink:href="#DejaVuSans-32"/>
     <use x="1841.570312" xlink:href="#DejaVuSans-30"/>
     <use x="1905.193359" xlink:href="#DejaVuSans-31"/>
     <use x="1968.816406" xlink:href="#DejaVuSans-37"/>
     <use x="2032.439453" xlink:href="#DejaVuSans-29"/>
     <use x="2071.453125" xlink:href="#DejaVuSans-20"/>
     <use x="2103.240234" xlink:href="#DejaVuSans-77"/>
     <use x="2185.027344" xlink:href="#DejaVuSans-65"/>
     <use x="2246.550781" xlink:href="#DejaVuSans-62"/>
     <use x="2310.027344" xlink:href="#DejaVuSans-20"/>
     <use x="2341.814453" xlink:href="#DejaVuSans-62"/>
     <use x="2405.291016" xlink:href="#DejaVuSans-72"/>
     <use x="2446.373047" xlink:href="#DejaVuSans-6f"/>
     <use x="2507.554688" xlink:href="#DejaVuSans-77"/>
     <use x="2589.341797" xlink:href="#DejaVuSans-73"/>
     <use x="2641.441406" xlink:href="#DejaVuSans-65"/>
     <use x="2702.964844" xlink:href="#DejaVuSans-72"/>
     <use x="2744.078125" xlink:href="#DejaVuSans-73"/>
    </g>
   </g>
   <g id="legend_1">
    <g id="patch_7">
     <path d="M 252.56 224.352 
L 374.069375 224.352 
Q 376.069375 224.352 376.069375 222.352 
L 376.069375 105.927 
Q 376.069375 103.927 374.069375 103.927 
L 252.56 103.927 
Q 250.56 103.927 250.56 105.927 
L 250.56 222.352 
Q 250.56 224.352 252.56 224.352 
z
" style="fill:#ffffff;opacity:0.8;stroke:#cccccc;stroke-linejoin:miter;"/>
    </g>
    <g id="line2d_43">
     <path d="M 254.56 112.025438 
L 274.56 112.025438 
" style="fill:none;stroke:#1f77b4;stroke-linecap:square;stroke-width:2;"/>
    </g>
    <g id="line2d_44"/>
    <g id="text_30">
     <!-- Chrome -->
     <g transform="translate(282.56 115.525438)scale(0.1 -0.1)">
      <use xlink:href="#DejaVuSans-43"/>
      <use x="69.824219" xlink:href="#DejaVuSans-68"/>
      <use x="133.203125" xlink:href="#DejaVuSans-72"/>
      <use x="174.285156" xlink:href="#DejaVuSans-6f"/>
      <use x="235.466797" xlink:href="#DejaVuSans-6d"/>
      <use x="332.878906" xlink:href="#DejaVuSans-65"/>
     </g>
    </g>
    <g id="line2d_45">
     <path d="M 254.56 126.703563 
L 274.56 126.703563 
" style="fill:none;stroke:#ff7f0e;stroke-linecap:square;stroke-width:2;"/>
    </g>
    <g id="line2d_46"/>
    <g id="text_31">
     <!-- Safari -->
     <g transform="translate(282.56 130.203563)scale(0.1 -0.1)">
      <use xlink:href="#DejaVuSans-53"/>
      <use x="63.476562" xlink:href="#DejaVuSans-61"/>
      <use x="124.755859" xlink:href="#DejaVuSans-66"/>
      <use x="159.960938" xlink:href="#DejaVuSans-61"/>
      <use x="221.240234" xlink:href="#DejaVuSans-72"/>
      <use x="262.353516" xlink:href="#DejaVuSans-69"/>
     </g>
    </g>
    <g id="line2d_47">
     <path d="M 254.56 141.381687 
L 274.56 141.381687 
" style="fill:none;stroke:#2ca02c;stroke-linecap:square;stroke-width:2;"/>
    </g>
    <g id="line2d_48"/>
    <g id="text_32">
     <!-- UC Browser -->
     <defs>
      <path d="M 19.671875 34.8125 
L 19.671875 8.109375 
L 35.5 8.109375 
Q 43.453125 8.109375 47.28125 11.40625 
Q 51.125 14.703125 51.125 21.484375 
Q 51.125 28.328125 47.28125 31.5625 
Q 43.453125 34.8125 35.5 34.8125 
z
M 19.671875 64.796875 
L 19.671875 42.828125 
L 34.28125 42.828125 
Q 41.5 42.828125 45.03125 45.53125 
Q 48.578125 48.25 48.578125 53.8125 
Q 48.578125 59.328125 45.03125 62.0625 
Q 41.5 64.796875 34.28125 64.796875 
z
M 9.8125 72.90625 
L 35.015625 72.90625 
Q 46.296875 72.90625 52.390625 68.21875 
Q 58.5 63.53125 58.5 54.890625 
Q 58.5 48.1875 55.375 44.234375 
Q 52.25 40.28125 46.1875 39.3125 
Q 53.46875 37.75 57.5 32.78125 
Q 61.53125 27.828125 61.53125 20.40625 
Q 61.53125 10.640625 54.890625 5.3125 
Q 48.25 0 35.984375 0 
L 9.8125 0 
z
" id="DejaVuSans-42"/>
     </defs>
     <g transform="translate(282.56 144.881687)scale(0.1 -0.1)">
      <use xlink:href="#DejaVuSans-55"/>
      <use x="73.193359" xlink:href="#DejaVuSans-43"/>
      <use x="143.017578" xlink:href="#DejaVuSans-20"/>
      <use x="174.804688" xlink:href="#DejaVuSans-42"/>
      <use x="243.408203" xlink:href="#DejaVuSans-72"/>
      <use x="284.490234" xlink:href="#DejaVuSans-6f"/>
      <use x="345.671875" xlink:href="#DejaVuSans-77"/>
      <use x="427.458984" xlink:href="#DejaVuSans-73"/>
      <use x="479.558594" xlink:href="#DejaVuSans-65"/>
      <use x="541.082031" xlink:href="#DejaVuSans-72"/>
     </g>
    </g>
    <g id="line2d_49">
     <path d="M 254.56 156.059813 
L 274.56 156.059813 
" style="fill:none;stroke:#d62728;stroke-linecap:square;stroke-width:2;"/>
    </g>
    <g id="line2d_50"/>
    <g id="text_33">
     <!-- Firefox -->
     <defs>
      <path d="M 9.8125 72.90625 
L 51.703125 72.90625 
L 51.703125 64.59375 
L 19.671875 64.59375 
L 19.671875 43.109375 
L 48.578125 43.109375 
L 48.578125 34.8125 
L 19.671875 34.8125 
L 19.671875 0 
L 9.8125 0 
z
" id="DejaVuSans-46"/>
      <path d="M 54.890625 54.6875 
L 35.109375 28.078125 
L 55.90625 0 
L 45.3125 0 
L 29.390625 21.484375 
L 13.484375 0 
L 2.875 0 
L 24.125 28.609375 
L 4.6875 54.6875 
L 15.28125 54.6875 
L 29.78125 35.203125 
L 44.28125 54.6875 
z
" id="DejaVuSans-78"/>
     </defs>
     <g transform="translate(282.56 159.559813)scale(0.1 -0.1)">
      <use xlink:href="#DejaVuSans-46"/>
      <use x="57.410156" xlink:href="#DejaVuSans-69"/>
      <use x="85.193359" xlink:href="#DejaVuSans-72"/>
      <use x="126.275391" xlink:href="#DejaVuSans-65"/>
      <use x="187.798828" xlink:href="#DejaVuSans-66"/>
      <use x="223.003906" xlink:href="#DejaVuSans-6f"/>
      <use x="284.138672" xlink:href="#DejaVuSans-78"/>
     </g>
    </g>
    <g id="line2d_51">
     <path d="M 254.56 170.737938 
L 274.56 170.737938 
" style="fill:none;stroke:#9467bd;stroke-linecap:square;stroke-width:2;"/>
    </g>
    <g id="line2d_52"/>
    <g id="text_34">
     <!-- IE -->
     <defs>
      <path d="M 9.8125 72.90625 
L 19.671875 72.90625 
L 19.671875 0 
L 9.8125 0 
z
" id="DejaVuSans-49"/>
      <path d="M 9.8125 72.90625 
L 55.90625 72.90625 
L 55.90625 64.59375 
L 19.671875 64.59375 
L 19.671875 43.015625 
L 54.390625 43.015625 
L 54.390625 34.71875 
L 19.671875 34.71875 
L 19.671875 8.296875 
L 56.78125 8.296875 
L 56.78125 0 
L 9.8125 0 
z
" id="DejaVuSans-45"/>
     </defs>
     <g transform="translate(282.56 174.237938)scale(0.1 -0.1)">
      <use xlink:href="#DejaVuSans-49"/>
      <use x="29.492188" xlink:href="#DejaVuSans-45"/>
     </g>
    </g>
    <g id="line2d_53">
     <path d="M 254.56 185.416063 
L 274.56 185.416063 
" style="fill:none;stroke:#8c564b;stroke-linecap:square;stroke-width:2;"/>
    </g>
    <g id="line2d_54"/>
    <g id="text_35">
     <!-- Opera -->
     <defs>
      <path d="M 39.40625 66.21875 
Q 28.65625 66.21875 22.328125 58.203125 
Q 16.015625 50.203125 16.015625 36.375 
Q 16.015625 22.609375 22.328125 14.59375 
Q 28.65625 6.59375 39.40625 6.59375 
Q 50.140625 6.59375 56.421875 14.59375 
Q 62.703125 22.609375 62.703125 36.375 
Q 62.703125 50.203125 56.421875 58.203125 
Q 50.140625 66.21875 39.40625 66.21875 
z
M 39.40625 74.21875 
Q 54.734375 74.21875 63.90625 63.9375 
Q 73.09375 53.65625 73.09375 36.375 
Q 73.09375 19.140625 63.90625 8.859375 
Q 54.734375 -1.421875 39.40625 -1.421875 
Q 24.03125 -1.421875 14.8125 8.828125 
Q 5.609375 19.09375 5.609375 36.375 
Q 5.609375 53.65625 14.8125 63.9375 
Q 24.03125 74.21875 39.40625 74.21875 
z
" id="DejaVuSans-4f"/>
      <path d="M 18.109375 8.203125 
L 18.109375 -20.796875 
L 9.078125 -20.796875 
L 9.078125 54.6875 
L 18.109375 54.6875 
L 18.109375 46.390625 
Q 20.953125 51.265625 25.265625 53.625 
Q 29.59375 56 35.59375 56 
Q 45.5625 56 51.78125 48.09375 
Q 58.015625 40.1875 58.015625 27.296875 
Q 58.015625 14.40625 51.78125 6.484375 
Q 45.5625 -1.421875 35.59375 -1.421875 
Q 29.59375 -1.421875 25.265625 0.953125 
Q 20.953125 3.328125 18.109375 8.203125 
z
M 48.6875 27.296875 
Q 48.6875 37.203125 44.609375 42.84375 
Q 40.53125 48.484375 33.40625 48.484375 
Q 26.265625 48.484375 22.1875 42.84375 
Q 18.109375 37.203125 18.109375 27.296875 
Q 18.109375 17.390625 22.1875 11.75 
Q 26.265625 6.109375 33.40625 6.109375 
Q 40.53125 6.109375 44.609375 11.75 
Q 48.6875 17.390625 48.6875 27.296875 
z
" id="DejaVuSans-70"/>
     </defs>
     <g transform="translate(282.56 188.916063)scale(0.1 -0.1)">
      <use xlink:href="#DejaVuSans-4f"/>
      <use x="78.710938" xlink:href="#DejaVuSans-70"/>
      <use x="142.1875" xlink:href="#DejaVuSans-65"/>
      <use x="203.710938" xlink:href="#DejaVuSans-72"/>
      <use x="244.824219" xlink:href="#DejaVuSans-61"/>
     </g>
    </g>
    <g id="line2d_55">
     <path d="M 254.56 200.094187 
L 274.56 200.094187 
" style="fill:none;stroke:#e377c2;stroke-linecap:square;stroke-width:2;"/>
    </g>
    <g id="line2d_56"/>
    <g id="text_36">
     <!-- Samsung Internet -->
     <g transform="translate(282.56 203.594187)scale(0.1 -0.1)">
      <use xlink:href="#DejaVuSans-53"/>
      <use x="63.476562" xlink:href="#DejaVuSans-61"/>
      <use x="124.755859" xlink:href="#DejaVuSans-6d"/>
      <use x="222.167969" xlink:href="#DejaVuSans-73"/>
      <use x="274.267578" xlink:href="#DejaVuSans-75"/>
      <use x="337.646484" xlink:href="#DejaVuSans-6e"/>
      <use x="401.025391" xlink:href="#DejaVuSans-67"/>
      <use x="464.501953" xlink:href="#DejaVuSans-20"/>
      <use x="496.289062" xlink:href="#DejaVuSans-49"/>
      <use x="525.78125" xlink:href="#DejaVuSans-6e"/>
      <use x="589.160156" xlink:href="#DejaVuSans-74"/>
      <use x="628.369141" xlink:href="#DejaVuSans-65"/>
      <use x="689.892578" xlink:href="#DejaVuSans-72"/>
      <use x="730.990234" xlink:href="#DejaVuSans-6e"/>
      <use x="794.369141" xlink:href="#DejaVuSans-65"/>
      <use x="855.892578" xlink:href="#DejaVuSans-74"/>
     </g>
    </g>
    <g id="line2d_57">
     <path d="M 254.56 214.772312 
L 274.56 214.772312 
" style="fill:none;stroke:#7f7f7f;stroke-linecap:square;stroke-width:2;"/>
    </g>
    <g id="line2d_58"/>
    <g id="text_37">
     <!-- Android -->
     <defs>
      <path d="M 34.1875 63.1875 
L 20.796875 26.90625 
L 47.609375 26.90625 
z
M 28.609375 72.90625 
L 39.796875 72.90625 
L 67.578125 0 
L 57.328125 0 
L 50.6875 18.703125 
L 17.828125 18.703125 
L 11.1875 0 
L 0.78125 0 
z
" id="DejaVuSans-41"/>
      <path d="M 45.40625 46.390625 
L 45.40625 75.984375 
L 54.390625 75.984375 
L 54.390625 0 
L 45.40625 0 
L 45.40625 8.203125 
Q 42.578125 3.328125 38.25 0.953125 
Q 33.9375 -1.421875 27.875 -1.421875 
Q 17.96875 -1.421875 11.734375 6.484375 
Q 5.515625 14.40625 5.515625 27.296875 
Q 5.515625 40.1875 11.734375 48.09375 
Q 17.96875 56 27.875 56 
Q 33.9375 56 38.25 53.625 
Q 42.578125 51.265625 45.40625 46.390625 
z
M 14.796875 27.296875 
Q 14.796875 17.390625 18.875 11.75 
Q 22.953125 6.109375 30.078125 6.109375 
Q 37.203125 6.109375 41.296875 11.75 
Q 45.40625 17.390625 45.40625 27.296875 
Q 45.40625 37.203125 41.296875 42.84375 
Q 37.203125 48.484375 30.078125 48.484375 
Q 22.953125 48.484375 18.875 42.84375 
Q 14.796875 37.203125 14.796875 27.296875 
z
" id="DejaVuSans-64"/>
     </defs>
     <g transform="translate(282.56 218.272312)scale(0.1 -0.1)">
      <use xlink:href="#DejaVuSans-41"/>
      <use x="68.408203" xlink:href="#DejaVuSans-6e"/>
      <use x="131.787109" xlink:href="#DejaVuSans-64"/>
      <use x="195.263672" xlink:href="#DejaVuSans-72"/>
      <use x="236.345703" xlink:href="#DejaVuSans-6f"/>
      <use x="297.527344" xlink:href="#DejaVuSans-69"/>
      <use x="325.310547" xlink:href="#DejaVuSans-64"/>
     </g>
    </g>
   </g>
  </g>
 </g>
 <defs>
  <clipPath id="p4ccbc9ae68">
   <rect height="443.52" width="446.4" x="72" y="69.12"/>
  </clipPath>
 </defs>
</svg>
